<svg aria-hidden="true" style="position: absolute; width: 0; height: 0; overflow: hidden;" version="1.1" xmlns="http://www.w3.org/2000/svg" xmlns:xlink="http://www.w3.org/1999/xlink">
<defs>
<symbol id="icon-iconbohdana" viewBox="0 0 31 32">
<path stroke-linejoin="round" stroke-linecap="round" stroke-miterlimit="4" stroke-width="1.28" d="M26.88 27.52l-5.559-5.559M21.321 21.961c0.951-0.951 1.705-2.080 2.22-3.322s0.78-2.574 0.78-3.919-0.265-2.676-0.78-3.919c-0.515-1.242-1.269-2.371-2.22-3.322s-2.080-1.705-3.322-2.22-2.574-0.779-3.919-0.779c-1.345 0-2.676 0.265-3.919 0.779s-2.371 1.269-3.322 2.22c-1.92 1.92-2.999 4.525-2.999 7.241s1.079 5.321 2.999 7.241c1.92 1.92 4.525 2.999 7.241 2.999s5.32-1.079 7.241-2.999z"></path>
</symbol>
<symbol id="icon-personbohdana" viewBox="0 0 31 32">
<path stroke-linejoin="round" stroke-linecap="round" stroke-miterlimit="4" stroke-width="1.2824" d="M20.642 9.28c-0.235 3.173-2.64 5.761-5.281 5.761s-5.050-2.588-5.281-5.761c-0.24-3.3 2.1-5.761 5.281-5.761s5.521 2.52 5.281 5.761z"></path>
<path stroke-linejoin="miter" stroke-linecap="butt" stroke-miterlimit="10" stroke-width="1.2824" d="M15.36 18.88c-5.22 0-10.518 2.88-11.498 8.316-0.118 0.655 0.253 1.284 0.938 1.284h21.12c0.686 0 1.057-0.629 0.939-1.284-0.981-5.436-6.279-8.316-11.499-8.316z"></path>
</symbol>
<symbol id="icon-heartbohdana" viewBox="0 0 31 32">
<path d="M15.329 28.8c-0.304 0-0.604-0.059-0.903-0.176-0.298-0.116-0.56-0.294-0.787-0.535l-1.796-1.716c-2.785-2.68-5.241-5.286-7.369-7.819-2.13-2.532-3.195-5.163-3.195-7.895 0-2.108 0.676-3.879 2.028-5.311s3.022-2.148 5.012-2.148c1.141 0 2.329 0.306 3.565 0.917s2.394 1.764 3.475 3.458c1.082-1.694 2.24-2.847 3.475-3.458s2.423-0.917 3.565-0.917c1.99 0 3.661 0.716 5.012 2.148s2.028 3.202 2.028 5.311c0 2.795-1.108 5.481-3.324 8.059s-4.642 5.132-7.278 7.661l-1.787 1.709c-0.227 0.241-0.495 0.419-0.803 0.535s-0.614 0.175-0.918 0.176zM14.595 9.295c-0.937-1.6-1.91-2.74-2.921-3.42-1.011-0.678-2.129-1.018-3.354-1.018-1.564 0-2.868 0.553-3.911 1.658s-1.564 2.486-1.564 4.144c0 1.224 0.327 2.48 0.981 3.766 0.654 1.287 1.532 2.606 2.635 3.955 1.101 1.348 2.368 2.728 3.8 4.141 1.43 1.411 2.919 2.864 4.468 4.358 0.18 0.17 0.391 0.255 0.632 0.255s0.452-0.085 0.632-0.255c1.549-1.494 3.039-2.947 4.47-4.36 1.431-1.41 2.698-2.79 3.8-4.139 1.101-1.35 1.979-2.669 2.633-3.955s0.981-2.542 0.981-3.766c0-1.658-0.521-3.039-1.564-4.144s-2.347-1.658-3.911-1.658c-1.225 0-2.344 0.34-3.354 1.019-1.012 0.678-1.985 1.818-2.921 3.418-0.083 0.149-0.195 0.261-0.335 0.335s-0.283 0.111-0.43 0.111c-0.147 0-0.29-0.037-0.43-0.111s-0.251-0.186-0.333-0.335z"></path>
</symbol>
<symbol id="icon-bagbohdana" viewBox="0 0 31 32">
<path stroke-linejoin="round" stroke-linecap="round" stroke-miterlimit="4" stroke-width="1.28" d="M9.6 11.2v-1.92c0-1.528 0.607-2.993 1.687-4.073s2.545-1.687 4.073-1.687c1.528 0 2.993 0.607 4.073 1.687s1.687 2.545 1.687 4.073v1.92M4.8 11.2c-0.255 0-0.499 0.101-0.679 0.281s-0.281 0.424-0.281 0.679v12.96c0 1.814 1.546 3.36 3.36 3.36h16.32c1.814 0 3.36-1.471 3.36-3.285v-13.035c0-0.255-0.101-0.499-0.281-0.679s-0.424-0.281-0.679-0.281h-21.12z"></path>
</symbol>
<symbol id="icon-searchbohdana" viewBox="0 0 34 32">
<path stroke-linejoin="round" stroke-linecap="round" stroke-miterlimit="4" stroke-width="1.6842" d="M32 31.158l-7.315-7.315M24.685 23.843c1.251-1.251 2.244-2.736 2.921-4.371s1.026-3.387 1.026-5.156-0.349-3.522-1.026-5.156c-0.677-1.635-1.67-3.12-2.921-4.371s-2.737-2.244-4.371-2.921-3.387-1.026-5.156-1.026c-1.769 0-3.522 0.349-5.156 1.026s-3.12 1.67-4.371 2.921c-2.527 2.527-3.946 5.954-3.946 9.528s1.42 7.001 3.946 9.528c2.527 2.527 5.954 3.946 9.528 3.946s7.001-1.42 9.528-3.946z"></path>
</symbol>
<symbol id="icon-heart-bohdana" viewBox="0 0 34 32">
<path d="M16.725 31.238c-0.361 0-0.72-0.070-1.075-0.209-0.355-0.138-0.667-0.35-0.937-0.637l-2.138-2.042c-3.315-3.19-6.239-6.293-8.772-9.308-2.535-3.014-3.803-6.147-3.803-9.399 0-2.51 0.805-4.618 2.414-6.323s3.598-2.557 5.967-2.557c1.358 0 2.773 0.364 4.244 1.091s2.85 2.1 4.136 4.116c1.288-2.017 2.666-3.389 4.137-4.116s2.885-1.091 4.244-1.091c2.369 0 4.358 0.852 5.967 2.557s2.414 3.812 2.414 6.323c0 3.327-1.319 6.525-3.958 9.594s-5.527 6.109-8.664 9.121l-2.127 2.034c-0.271 0.287-0.589 0.499-0.955 0.637s-0.731 0.208-1.093 0.209zM15.851 8.018c-1.115-1.905-2.274-3.262-3.477-4.071-1.203-0.808-2.534-1.212-3.993-1.212-1.862 0-3.414 0.658-4.656 1.973s-1.862 2.96-1.862 4.933c0 1.458 0.389 2.952 1.168 4.483 0.778 1.533 1.824 3.102 3.136 4.708 1.311 1.605 2.819 3.248 4.524 4.929 1.702 1.68 3.475 3.409 5.319 5.188 0.215 0.203 0.466 0.304 0.752 0.304s0.538-0.101 0.752-0.304c1.844-1.779 3.617-3.509 5.321-5.19 1.703-1.679 3.211-3.321 4.524-4.927 1.311-1.608 2.356-3.177 3.134-4.708s1.168-3.026 1.168-4.483c0-1.973-0.621-3.618-1.862-4.933s-2.794-1.973-4.656-1.973c-1.459 0-2.79 0.405-3.993 1.214-1.204 0.808-2.363 2.164-3.477 4.069-0.099 0.178-0.232 0.31-0.399 0.399s-0.337 0.132-0.512 0.132c-0.175 0-0.346-0.044-0.512-0.132s-0.299-0.221-0.397-0.399z"></path>
</symbol>
<symbol id="icon-rounded" viewBox="0 0 31 32">
<path d="M15.329 28.8c-0.304 0-0.604-0.059-0.903-0.176-0.298-0.116-0.56-0.294-0.787-0.535l-1.796-1.716c-2.785-2.68-5.241-5.286-7.369-7.819-2.13-2.532-3.195-5.163-3.195-7.895 0-2.108 0.676-3.879 2.028-5.311s3.022-2.148 5.012-2.148c1.141 0 2.329 0.306 3.565 0.917s2.394 1.764 3.475 3.458c1.082-1.694 2.24-2.847 3.475-3.458s2.423-0.917 3.565-0.917c1.99 0 3.661 0.716 5.012 2.148s2.028 3.202 2.028 5.311c0 2.795-1.108 5.481-3.324 8.059s-4.642 5.132-7.278 7.661l-1.787 1.709c-0.227 0.241-0.495 0.419-0.803 0.535s-0.614 0.175-0.918 0.176zM14.595 9.295c-0.937-1.6-1.91-2.74-2.921-3.42-1.011-0.678-2.129-1.018-3.354-1.018-1.564 0-2.868 0.553-3.911 1.658s-1.564 2.486-1.564 4.144c0 1.224 0.327 2.48 0.981 3.766 0.654 1.287 1.532 2.606 2.635 3.955 1.101 1.348 2.368 2.728 3.8 4.141 1.43 1.411 2.919 2.864 4.468 4.358 0.18 0.17 0.391 0.255 0.632 0.255s0.452-0.085 0.632-0.255c1.549-1.494 3.039-2.947 4.47-4.36 1.431-1.41 2.698-2.79 3.8-4.139 1.101-1.35 1.979-2.669 2.633-3.955s0.981-2.542 0.981-3.766c0-1.658-0.521-3.039-1.564-4.144s-2.347-1.658-3.911-1.658c-1.225 0-2.344 0.34-3.354 1.019-1.012 0.678-1.985 1.818-2.921 3.418-0.083 0.149-0.195 0.261-0.335 0.335s-0.283 0.111-0.43 0.111c-0.147 0-0.29-0.037-0.43-0.111s-0.251-0.186-0.333-0.335z"></path>
</symbol>
<symbol id="icon-Icon-planet" viewBox="0 0 35 32">
<path d="M29.757 12.978c-0.433-1.995-1.302-3.902-2.537-5.529-1.231-1.627-2.837-2.983-4.702-3.816-0.676-0.313-1.387-0.549-2.113-0.72s-1.464-0.29-2.21-0.337c-2.63-0.186-5.305 0.442-7.635 1.715-2.329 1.261-4.358 3.156-5.584 5.511-1.059 2.102-1.565 4.514-1.525 6.851 0.036 1.506 0.317 3.004 0.837 4.411 0.512 1.411 1.3 2.709 2.267 3.852 0.609 0.703 0.387 0.779-0.323 0.316-0.18-0.115-0.39-0.263-0.599-0.468-0.107-0.099-0.22-0.207-0.338-0.323-0.059-0.059-0.119-0.119-0.18-0.18-0.055-0.067-0.111-0.135-0.169-0.205-0.222-0.285-0.485-0.587-0.689-0.954-0.108-0.18-0.218-0.367-0.328-0.56-0.099-0.198-0.189-0.407-0.282-0.619-0.331-0.753-0.557-1.544-0.75-2.34-0.073-0.402-0.156-0.804-0.207-1.209-0.036-0.407-0.103-0.812-0.104-1.221-0.072-1.631 0.116-3.268 0.538-4.84 0.23-0.783 0.483-1.552 0.828-2.3 0.333-0.755 0.761-1.463 1.242-2.127 0.961-1.332 2.173-2.462 3.517-3.38 1.606-1.103 3.443-1.927 5.385-2.391 1.944-0.458 3.998-0.515 5.954-0.118 2.152 0.422 4.195 1.417 5.846 2.857 1.666 1.425 2.946 3.262 3.798 5.261 0.526 1.232 0.89 2.531 1.082 3.855 0.186 1.325 0.193 2.675 0.016 4-0.253 2.011-0.977 3.951-2.016 5.683-1.067 1.714-2.466 3.234-4.15 4.337-2.601 1.757-5.751 2.46-8.828 2.324-0.34-0.017-0.676-0.044-1.012-0.070-0.334-0.043-0.672-0.073-1.010-0.132-1.256-0.204-2.059-0.46-2.608-0.667-0.273-0.11-0.484-0.206-0.654-0.3-0.167-0.101-0.294-0.196-0.401-0.295-0.097-0.090-0.23-0.193-0.278-0.265-0.080-0.122 0.131-0.127 0.571-0.031 0.439 0.104 1.118 0.266 1.99 0.473 2.586 0.565 5.366 0.682 7.994-0.025 2.635-0.662 5.018-2.25 6.724-4.407 1.268-1.602 2.164-3.501 2.629-5.498 0.469-1.999 0.441-4.101-0.007-6.109l0.019-0.009z"></path>
<path d="M10.585 25.28c-1.122 1.123-2.25 2.244-3.425 3.326-0.429 0.395-0.85 0.799-1.299 1.174-0.796 0.657-1.615 1.299-2.567 1.788-0.474 0.234-1.005 0.453-1.605 0.432-0.281-0.005-0.589-0.064-0.868-0.233-0.283-0.167-0.483-0.473-0.55-0.769-0.119-0.53-0.022-1.017 0.090-1.475 0.125-0.457 0.293-0.892 0.483-1.311 0.497-1.069 1.086-2.106 1.944-2.948 0.282-0.258 0.366-0.076 0.292 0.261-0.071 0.342-0.271 0.859-0.624 1.391-0.312 0.473-0.6 0.965-0.85 1.469s-0.464 1.024-0.589 1.538c-0.125 0.508-0.116 1.032 0.121 1.2 0.113 0.105 0.328 0.17 0.576 0.181 0.229 0.019 0.473-0.026 0.73-0.108 0.614-0.198 1.216-0.591 1.787-1.010 0.572-0.425 1.12-0.899 1.661-1.374 1.186-1.049 2.324-2.165 3.452-3.293l2.074-2.095c1.045-1.061 2.105-2.119 3.175-3.147 0.835-0.796 1.642-1.594 2.586-2.284 0.211-0.15 0.418-0.297 0.652-0.427 0.873-0.48 1.368-0.383 1.538-0.158 0.041 0.056 0.089 0.114 0.099 0.162 0.016 0.084-0.076 0.12-0.211 0.155-0.137 0.035-0.341 0.092-0.618 0.215-0.411 0.183-0.817 0.466-1.213 0.769-0.397 0.305-0.786 0.638-1.172 0.985-0.772 0.694-1.535 1.435-2.292 2.188-1.124 1.12-2.243 2.265-3.363 3.409l-0.014-0.011z"></path>
<path d="M18.162 14.427c0.041 0.052 0.084 0.103 0.129 0.154l0.103 0.111 0.144 0.143c0.005 0.093 0.002 0.206-0.017 0.304-0.017 0.050-0.039 0.099-0.060 0.147l-0.091 0.137c-0.106 0.13-0.19 0.202-0.279 0.287-0.071 0.066-0.053 0.046-0.072 0.067-0.016 0.014-0.008 0.035 0.010 0.041 0.018 0.009 0.021 0.015 0.059 0.016 0.040 0.007 0.084 0.006 0.131-0.001 0.047-0.006 0.091-0.003 0.14-0.017 0.192-0.031 0.391-0.108 0.587-0.188 0.393-0.169 0.775-0.397 1.146-0.639 0.454-0.3 0.884-0.641 1.313-0.982 0.756-0.603 1.481-1.251 2.178-1.926 0.689-0.678 1.385-1.377 1.943-2.142 0.234-0.328 0.34-0.723 0.136-1.032-0.141-0.287-0.594-0.167-0.952 0.003-0.476 0.226-0.921 0.55-1.353 0.881-0.432 0.334-0.853 0.686-1.274 1.036-0.515 0.451-0.232-0.512 0.792-1.33 0.455-0.355 0.923-0.696 1.462-0.971 0.272-0.134 0.559-0.261 0.932-0.291 0.185-0.009 0.428 0.028 0.618 0.187 0.192 0.173 0.256 0.324 0.32 0.511 0.119 0.38 0.010 0.773-0.148 1.054-0.166 0.294-0.351 0.506-0.538 0.732-0.376 0.442-0.775 0.854-1.184 1.256-0.984 0.956-2.016 1.941-3.136 2.796-0.505 0.379-1.022 0.745-1.588 1.050-0.281 0.153-0.575 0.292-0.895 0.388-0.159 0.049-0.327 0.084-0.505 0.095-0.043 0.006-0.090 0.002-0.136-0.001-0.042-0.005-0.118-0.004-0.171-0.019-0.108-0.045-0.225-0.067-0.323-0.133-0.069-0.061-0.15-0.119-0.162-0.223-0.012-0.098 0.028-0.182 0.081-0.267 0.051-0.084 0.138-0.167 0.206-0.235l0.161-0.153c0.059-0.058 0.131-0.136 0.143-0.158 0.020-0.032 0.051-0.083 0.022-0.116l-0.076-0.082-0.132-0.153c-0.086-0.105-0.167-0.215-0.241-0.333-0.073-0.126-0.138-0.238-0.18-0.416-0.047-0.191 0.015-0.389 0.153-0.512 0.079-0.030 0.165-0.048 0.254-0.054 0.098-0.009 0.143-0.005 0.214-0.002 0.13 0.007 0.256 0.027 0.379 0.052 0.094 0.020 0.185 0.044 0.276 0.070l0.122 0.038 0.067 0.025c0.026 0.020 0.038-0.019 0.056-0.029l0.061-0.060 0.194-0.191c0.208-0.206 0.415-0.411 0.622-0.616l-0.294-0.147-0.469-0.25c-0.31-0.172-0.614-0.351-0.907-0.556-0.172-0.122-0.342-0.247-0.497-0.408-0.073-0.080-0.156-0.165-0.212-0.315-0.059-0.139-0.019-0.297 0.077-0.406 0.297-0.345 0.717-0.408 1.070-0.413 0.362-0.005 0.704 0.037 1.046 0.080 0.24 0.030 0.474 0.059 0.713 0.095 0.886 0.136 1.16 0.207 1.332 0.363 0.039 0.035 0.092 0.072 0.113 0.105 0.071 0.11-0.303 0.141-0.958 0.066-0.539-0.060-1.085-0.138-1.626-0.194-0.268-0.025-0.538-0.046-0.778-0.025-0.123 0.007-0.226 0.036-0.32 0.069-0.041 0.024-0.088 0.038-0.123 0.070-0.018 0.015-0.038 0.026-0.056 0.043l-0.024 0.025 0.002-0.002c-0.003 0.004-0.001 0.009 0.001 0.011 0.001 0.002-0.001-0.003 0.006 0.006 0.007 0.013 0.020 0.028 0.033 0.043 0.023 0.030 0.057 0.064 0.089 0.096 0.138 0.131 0.311 0.259 0.491 0.379 0.362 0.24 0.755 0.458 1.153 0.664l0.404 0.201 0.55 0.258c-0.464 0.462-0.929 0.925-1.394 1.388l-0.127 0.126c-0.043 0.039-0.079 0.107-0.142 0.060l-0.325-0.112c-0.106-0.034-0.212-0.064-0.317-0.086s-0.209-0.038-0.308-0.044l-0.119-0.002c-0.003 0.002-0.005 0.005-0.005 0.009-0 0.002-0.001 0.003 0.001 0.007 0.008 0.013 0.013 0.050 0.030 0.079 0.056 0.126 0.153 0.267 0.258 0.398l-0.008 0.009z"></path>
<path d="M23.523 15.58c0.050-0.151 0.078-0.363 0.098-0.562 0.020-0.202 0.030-0.409 0.035-0.616 0.004-0.151-0.008-0.302-0.009-0.453 0-0.26-0.008-0.549-0.023-0.783 0-0.050-0.002-0.108-0.009-0.172-0.005-0.032-0.009-0.066-0.020-0.099-0.005-0.015-0.016-0.037-0.031-0.032-0.012 0.007-0.020 0.018-0.029 0.029-0.029 0.039-0.059 0.091-0.092 0.14-0.019 0.028-0.026 0.041-0.055 0.080-0.039 0.052-0.082 0.102-0.128 0.151-0.057 0.062-0.127 0.125-0.192 0.174-0.062 0.049-0.125 0.096-0.189 0.141-0.13 0.090-0.266 0.171-0.418 0.227-0.043 0.014-0.096 0.008-0.087-0.052-0.025-0.009-0.033-0.035-0.033-0.065-0.002-0.029-0.002-0.061 0.002-0.095 0.016-0.137 0.080-0.301 0.22-0.395 0.12-0.083 0.263-0.176 0.337-0.244 0.044-0.040 0.088-0.086 0.13-0.138 0.087-0.105 0.178-0.256 0.262-0.383 0.043-0.071 0.087-0.114 0.13-0.158 0.041-0.021 0.081-0.039 0.113-0.046 0.065-0.011 0.113-0.067 0.211 0.012 0.072 0.026 0.125 0.085 0.171 0.182 0.041 0.105 0.073 0.233 0.087 0.374 0.046 0.387 0.044 0.512 0.061 0.723 0.014 0.197 0.026 0.395 0.027 0.591 0 0.432-0.013 0.862-0.079 1.302-0.026 0.137-0.044 0.272-0.122 0.428-0.066 0.144-0.247 0.324-0.441 0.289-0.149-0.014-0.273-0.105-0.35-0.174-0.086-0.075-0.152-0.158-0.218-0.241-0.126-0.168-0.232-0.343-0.33-0.52-0.15-0.276-0.301-0.546-0.408-0.851-0.023-0.068-0.047-0.134-0.063-0.208-0.061-0.265 0.019-0.441 0.166-0.444 0.034 0 0.066 0.005 0.088 0.020 0.060 0.086 0.114 0.083 0.144 0.221 0.129 0.431 0.38 0.957 0.662 1.382 0.053 0.080 0.111 0.152 0.168 0.217 0.050 0.062 0.133 0.124 0.144 0.132 0.006 0.006 0.006 0.007 0.011 0.006-0.005 0.011 0.026-0.026 0.047-0.093l0.011 0.003z"></path>
<path d="M18.903 15.536c-0.069 0.073-0.141 0.158-0.22 0.197-0.057 0.036-0.117 0.061-0.178 0.079-0.123 0.035-0.249 0.035-0.38 0.030-0.083-0.003-0.201-0.124-0.149-0.209 0.091-0.145 0.18-0.285 0.259-0.41 0.004-0.005 0.011-0.014 0.020-0.027 0.004-0.006 0.009-0.014 0.015-0.023 0.012-0.018 0.026-0.041 0.038-0.066 0.029-0.045 0.023-0.132-0.059-0.144-0.004-0.010-0.020-0.011-0.029-0.015l-0.016-0.005-0.057-0.039c-0.077-0.053-0.158-0.108-0.243-0.172-0.044-0.034-0.087-0.067-0.14-0.117-0.024-0.022-0.055-0.054-0.088-0.093-0.012-0.013-0.039-0.052-0.058-0.080-0.012-0.021-0.014-0.019-0.034-0.059-0.017-0.034-0.031-0.070-0.041-0.107l-0.014-0.055c-0.004-0.012-0.014-0.088-0.011-0.133 0.005-0.112 0.026-0.202 0.086-0.306 0.056-0.104 0.184-0.208 0.259-0.24 0.046-0.023 0.097-0.041 0.148-0.052 0.022-0.005 0.058-0.011 0.069-0.011l0.030-0.002c0.097-0.004 0.124 0.003 0.161 0.007 0.056 0.009 0.087 0.016 0.116 0.023 0.052 0.011 0.087 0.023 0.116 0.039 0.127 0.075 0.24 0.101 0.347 0.135l0.076 0.023c0.035 0.011 0.014 0.002 0.023 0.004l0.007-0.005c0.004-0.003 0.006-0.008 0.007-0.011 0.049-0.044 0.147-0.136 0.222-0.21 0.162-0.16 0.322-0.332 0.468-0.506 0.074-0.086 0.141-0.176 0.208-0.258-0.003 0.005-0.001-0.002-0.001-0.002-0-0.003-0.004-0.005-0.006-0.004l-0.003 0.001c0.024 0.011-0.050-0.023-0.092-0.040l-0.304-0.124-0.162-0.074c-0.069-0.033-0.174-0.083-0.276-0.138-0.18-0.096-0.376-0.193-0.599-0.341-0.112-0.077-0.237-0.165-0.378-0.334-0.033-0.038-0.073-0.1-0.105-0.152-0.004-0.006-0.023-0.041-0.040-0.079-0.016-0.036-0.029-0.073-0.041-0.11-0.010-0.029-0.023-0.092-0.026-0.154-0.004-0.061-0.001-0.124 0.008-0.182 0.052-0.278 0.241-0.441 0.332-0.497 0.11-0.070 0.169-0.086 0.237-0.111 0.216-0.057 0.33-0.059 0.456-0.059 0.121 0.001 0.227 0.009 0.334 0.017 0.211 0.017 0.411 0.041 0.608 0.067 0.131 0.022 0.264 0.035 0.395 0.017 0.108-0.018 0.689 0.043 1.269 0.145l0.218 0.039 0.093 0.018c0.001-0.003 0.001 0.002 0.002-0.001-0.004 0.002 0.011 0.003 0.056-0.016 0.085-0.035 0.198-0.122 0.237-0.149 0.1-0.065 0.245-0.186 0.374-0.287l0.405-0.318c0.275-0.211 0.559-0.417 0.863-0.605 0.089-0.051 0.169-0.127 0.273-0.14 0.24-0.030 0.419-0.157 0.634-0.246 0.29-0.124 0.632-0.221 1.006-0.164 0.183 0.031 0.357 0.137 0.475 0.271 0.111 0.112-0.052 0.188-0.094 0.185-0.133-0.017-0.075 0.095-0.103 0.149-0.008 0.020-0.019 0.044-0.032 0.057-0.003 0.004-0.025 0.003-0.057-0.001-0.017-0.001-0.034-0.007-0.055-0.009-0.023 0.002-0.048 0.004-0.075 0.007-0.101-0.004-0.249 0.052-0.397 0.121-0.305 0.16-0.611 0.441-0.676 0.485-0.009 0.002-0.122 0.088-0.291 0.22-0.169 0.135-0.39 0.324-0.611 0.532s-0.44 0.432-0.628 0.624c-0.203 0.212-0.442 0.385-0.528 0.435-0.177 0.111-0.416 0.186-0.691 0.188-0.016 0.001-0.085 0.006-0.196-0-0.028-0.003-0.058-0.007-0.090-0.011-0.026-0.004-0.053-0.008-0.083-0.012-0.038-0.006-0.080-0.013-0.125-0.020-0.182-0.028-0.421-0.061-0.66-0.089-0.479-0.057-0.952-0.095-0.987-0.092-0.186-0.012-0.374-0.007-0.547-0.003-0.080 0.001-0.16 0.002-0.241 0.002-0.036-0.001-0.069-0-0.093-0.007-0.013-0.003-0.024-0.006-0.027-0.010l-0.004-0.003c-0.003-0.008 0 0.017-0.008-0.031-0.012-0.065-0.027-0.129-0.048-0.193-0.014-0.044-0.027-0.087-0.040-0.129-0.012-0.038-0.034-0.079-0.049-0.111-0.010-0.027-0.024-0.053-0.043-0.077-0.022-0.025-0.020-0.032-0.038-0.045-0.025-0.020-0.025-0.008-0.001-0.014 0.006-0.002 0.042-0.008 0.056-0.019l0.013-0.009 0.003-0.002 0.001-0.001 0.156-0.088 0.007-0.003 0.026-0.014c0.062-0.041 0.151-0.113 0.238-0.209 0.007-0.008 0.010 0.003 0.026 0.011 0.031 0.019 0.075 0.047 0.132 0.075 0.112 0.057 0.25 0.117 0.405 0.182 0.079 0.033 0.157 0.068 0.263 0.119l0.211 0.103 0.251 0.124 0.144 0.077c0.072 0.038 0.135 0.080 0.202 0.121 0.267 0.171 0.487 0.384 0.608 0.648 0.057 0.134 0.082 0.283 0.074 0.426-0.004 0.071-0.012 0.141-0.041 0.21-0.019 0.069-0.048 0.138-0.084 0.206-0.040 0.101-0.124 0.187-0.197 0.276-0.044 0.057-0.093 0.109-0.144 0.162-0.041 0.044-0.081 0.086-0.121 0.129-0.314 0.329-0.641 0.6-1 0.866l-0.14 0.1c-0.019 0.019-0.067 0.041-0.103 0.066l-0.115 0.074c-0.080 0.039-0.162 0.071-0.246 0.099-0.086 0.021-0.175 0.021-0.263 0.013-0.418-0.065-0.56-0.165-0.767-0.191-0.016-0.001-0.038-0.004-0.065-0.007-0.013-0.002-0.025-0-0.035-0.006l-0.013-0.005-0.002-0.001-0.001-0.001 0.019-0.083c0.053-0.213 0.081-0.406 0.054-0.451-0.004-0.007-0.002 0.001 0.017-0.005 0.011-0.002 0.021-0.006 0.030-0.013l0.102-0.054c0.054-0.027 0.074-0.053 0.146-0.103 0.031-0.023 0.060-0.048 0.089-0.074 0.026-0.023 0.067-0.065 0.056-0.051l0.005 0.008c0.009 0.010 0.016 0.020 0.030 0.034 0.051 0.054 0.132 0.126 0.212 0.197l0.067 0.059c0.035 0.027 0.062 0.061 0.092 0.090 0.062 0.057 0.109 0.118 0.159 0.169 0.048 0.075 0.093 0.134 0.116 0.194 0.030 0.055 0.051 0.102 0.064 0.139 0.049 0.089 0.004 0.315-0.098 0.483-0.116 0.171-0.266 0.305-0.326 0.361z"></path>
<path d="M31.784 11.015c0.262 0.24 0.519 0.637 0.658 1.002 0.195 0.511 0.223 1.060 0.011 1.571-0.135 0.324 0.478 0.328 0.583 0.073 0.435-1.048 0.030-2.255-0.784-3-0.203-0.185-0.73 0.116-0.469 0.355z"></path>
<path d="M11.497 1.499c0.157-0.16 0.305-0.29 0.489-0.421 0.048-0.034 0.097-0.067 0.146-0.099 0.022-0.014 0.044-0.027 0.066-0.041 0.055-0.033-0.038 0.021 0.018-0.010 0.1-0.056 0.203-0.106 0.309-0.15 0.023-0.010 0.047-0.019 0.071-0.029 0.060-0.024-0.050 0.017 0.011-0.004 0.054-0.019 0.108-0.036 0.163-0.052 0.049-0.014 0.098-0.026 0.148-0.038 0.025-0.006 0.050-0.011 0.075-0.016 0.119-0.026-0.037 0.004 0.032-0.006 0.11-0.017 0.221-0.028 0.332-0.033 0.119-0.006 0.18-0.004 0.313 0.005 0.173 0.012 0.4-0.053 0.483-0.221 0.079-0.16-0.069-0.281-0.22-0.291-0.581-0.039-1.153 0.044-1.693 0.262-0.516 0.209-0.968 0.551-1.357 0.946-0.119 0.121-0.062 0.286 0.090 0.338 0.177 0.059 0.395-0.010 0.523-0.14z"></path>
<path d="M33.228 9.892c0.266 0.171 0.526 0.407 0.668 0.681 0.145 0.281 0.192 0.598 0.17 0.911-0.010 0.138 0.162 0.163 0.268 0.149 0.103-0.014 0.334-0.080 0.343-0.217 0.025-0.353-0.015-0.708-0.182-1.024-0.181-0.344-0.462-0.601-0.786-0.809-0.118-0.076-0.327-0.023-0.433 0.052-0.093 0.065-0.171 0.179-0.048 0.259z"></path>
<path d="M10.65 9.008c0.060 0.8-1.467 0.851-1.331-0.092 0.095-0.658 1.117-0.702 1.304-0.053 0.015 0.051 0.023 0.1 0.027 0.146z"></path>
<path d="M7.629 11.88c0.036 0.48-0.88 0.511-0.798-0.056 0.057-0.395 0.67-0.421 0.782-0.032 0.009 0.031 0.014 0.060 0.016 0.088z"></path>
<path d="M22.463 26.442c0.036 0.48-0.88 0.511-0.799-0.056 0.057-0.395 0.671-0.421 0.782-0.032 0.009 0.031 0.014 0.060 0.016 0.088z"></path>
</symbol>
<symbol id="icon-Icon-ship" viewBox="0 0 26 32">
<path d="M6.845 7.841l0.52-0.209c0.171-0.075 0.338-0.16 0.507-0.24 0.342-0.154 0.667-0.34 0.994-0.525 0.243-0.129 0.46-0.298 0.693-0.442 0.812-0.523 1.594-1.106 2.317-1.757 0.316-0.294 0.633-0.592 0.922-0.91 0.191-0.199 0.37-0.409 0.554-0.615 0.182-0.208 0.383-0.399 0.582-0.593 0.127-0.118 0.164-0.059 0.132 0.105-0.038 0.159-0.114 0.449-0.314 0.705-0.728 0.885-1.54 1.71-2.472 2.401-0.139 0.103-0.276 0.211-0.414 0.321-0.141 0.105-0.283 0.211-0.426 0.317-0.278 0.221-0.576 0.419-0.871 0.615-0.321 0.221-0.67 0.399-1.004 0.599-0.347 0.177-0.693 0.357-1.048 0.517-0.442 0.187-0.882 0.378-1.339 0.523-0.172 0.058-0.342 0.123-0.516 0.174l-0.526 0.14c-0.176 0.044-0.349 0.1-0.526 0.137l-0.53 0.109c-0.137 0.031-0.272 0.062-0.408 0.092s-0.273 0.048-0.409 0.073c-0.273 0.047-0.546 0.099-0.821 0.136-0.122 0.010-0.241 0.025-0.364 0.032-0.457 0.028-0.605-0.015-0.702-0.156-0.022-0.033-0.051-0.065-0.064-0.097-0.043-0.109 0.139-0.212 0.461-0.267 0.239-0.032 0.48-0.065 0.722-0.098 0.241-0.047 0.484-0.089 0.729-0.123 0.247-0.028 0.49-0.081 0.735-0.133 0.244-0.055 0.494-0.088 0.736-0.156 0.724-0.185 1.448-0.395 2.142-0.688l0.006 0.012z"></path>
<path d="M7.929 26.699c-0.496-0.62-0.863-1.249-1.238-1.897-0.368-0.647-0.703-1.31-1.025-1.976-0.235-0.486-0.477-0.968-0.695-1.459l-2.247-5.207c-0.331-0.771-0.67-1.544-0.989-2.315-0.205-0.495-0.414-0.99-0.604-1.493-0.096-0.251-0.186-0.504-0.273-0.758-0.088-0.254-0.144-0.519-0.21-0.78-0.075-0.328 0.019-0.311 0.219-0.082 0.1 0.114 0.229 0.28 0.375 0.484 0.136 0.207 0.264 0.459 0.379 0.742 0.402 1.007 0.834 2.001 1.259 3.003 0.418 1.007 0.838 2.016 1.26 3.031 0.5 1.218 1.075 2.462 1.638 3.677 0.619 1.336 1.279 2.651 2.063 3.888 0.47 0.757 1.080 1.401 1.777 1.968 1.047 0.865 2.257 1.546 3.487 2.111 0.963 0.431 1.951 0.753 2.955 1.009 0.221 0.055 0.438 0.109 0.661 0.164 0.827 0.194 1.082 0.286 1.245 0.458 0.037 0.038 0.088 0.077 0.109 0.111 0.035 0.056-0.037 0.091-0.202 0.114-0.163 0.020-0.424 0.046-0.743-0.007-0.959-0.109-1.915-0.372-2.852-0.715-0.938-0.342-1.862-0.763-2.751-1.257-1.307-0.751-2.581-1.62-3.61-2.801l0.010-0.011z"></path>
<path d="M25.257 18.833c-0.097 1.156-0.174 2.315-0.227 3.474-0.015 0.214-0 0.414-0.030 0.652-0.033 0.23-0.056 0.466-0.127 0.677-0.443 1.525-1.331 2.789-2.264 3.974-0.417 0.526-0.855 1.039-1.308 1.528-0.585 0.622-1.198 1.235-1.926 1.706-0.227 0.147-0.263 0.027-0.158-0.203 0.107-0.228 0.339-0.574 0.68-0.907 1.2-1.191 2.337-2.468 3.303-3.876 0.14-0.213 0.284-0.428 0.403-0.657 0.061-0.113 0.126-0.226 0.184-0.342l0.161-0.353c0.115-0.234 0.183-0.482 0.275-0.723 0.060-0.246 0.141-0.493 0.165-0.733 0.023-0.134 0.043-0.26 0.041-0.409l0.016-0.441 0.039-0.882c0.029-0.587 0.064-1.174 0.102-1.761 0.048-0.722 0.107-1.444 0.166-2.165 0.096-1.092 0.223-2.187 0.355-3.269 0.12-0.84 0.205-1.668 0.399-2.497 0.040-0.183 0.069-0.363 0.134-0.545 0.234-0.667 0.432-0.848 0.587-0.928 0.038-0.018 0.079-0.046 0.109-0.051 0.103-0.014 0.042 0.268-0.068 0.733-0.3 1.415-0.483 2.956-0.67 4.51-0.13 1.155-0.241 2.321-0.327 3.488l-0.016 0z"></path>
<path d="M21.394 4.797c-0.289-0.115-0.576-0.233-0.852-0.372-0.282-0.127-0.552-0.276-0.824-0.422-0.2-0.101-0.397-0.208-0.59-0.323-0.67-0.419-1.308-0.883-1.907-1.387-0.271-0.216-0.535-0.446-0.802-0.663l-0.502-0.435c-0.16-0.154-0.312-0.316-0.449-0.49-0.172-0.216 0.408-0.296 0.776 0.027 0.663 0.573 1.342 1.116 2.026 1.679 0.203 0.171 0.43 0.318 0.663 0.457 0.229 0.147 0.473 0.268 0.707 0.403 0.255 0.153 0.526 0.274 0.789 0.414 0.27 0.123 0.539 0.251 0.815 0.361l0.513 0.196c0.173 0.061 0.349 0.11 0.523 0.165 0.263 0.089 0.536 0.138 0.805 0.206 0.271 0.060 0.546 0.091 0.818 0.129 0.213 0.012 0.425 0.010 0.635 0.011 0.21-0.004 0.419-0.030 0.627-0.040 0.092-0.004 0.181-0.017 0.273-0.030 0.341-0.035 0.452 0.004 0.548 0.175 0.022 0.039 0.049 0.077 0.064 0.117 0.051 0.133-0.082 0.259-0.347 0.324-0.392 0.108-0.807 0.139-1.228 0.155-0.21-0.002-0.421-0.018-0.634-0.032-0.21-0.027-0.421-0.061-0.631-0.094-0.311-0.054-0.617-0.137-0.923-0.216-0.299-0.101-0.606-0.179-0.896-0.299l0.005-0.016z"></path>
<path d="M10.283 13.701c-0.394 1.438-0.085 3.033 0.726 4.317 0.293 0.472 0.663 0.894 1.064 1.277 0.714 0.667 1.574 1.2 2.522 1.451 0.942 0.27 1.96 0.23 2.885-0.102 0.811-0.313 1.555-0.856 2.118-1.513 0.723-0.862 1.123-1.944 1.281-3.048 0.035-0.345 0.161-0.315 0.298 0.005 0.063 0.16 0.124 0.395 0.141 0.684 0.025 0.29-0.016 0.631-0.138 0.974-0.212 0.61-0.53 1.18-0.93 1.688-0.199 0.254-0.425 0.493-0.667 0.703l-0.366 0.311-0.396 0.277c-0.545 0.346-1.152 0.607-1.789 0.743-0.636 0.137-1.296 0.149-1.931 0.044-1.515-0.257-2.964-1.057-3.977-2.224-1.121-1.263-1.785-2.966-1.666-4.667 0.071-1.046 0.417-2.050 1.025-2.915 0.485-0.637 1.123-1.117 1.797-1.495 0.338-0.192 0.69-0.354 1.050-0.491 0.36-0.14 0.727-0.258 1.102-0.344 0.581-0.141 1.175-0.219 1.776-0.211 0.6 0.004 1.212 0.113 1.785 0.369 0.126 0.056 0.246 0.124 0.367 0.189 0.114 0.078 0.237 0.146 0.342 0.24 0.413 0.33 0.575 0.657 0.667 0.873 0.041 0.114 0.071 0.203 0.076 0.285 0 0.084-0.012 0.155-0.027 0.218-0.014 0.058-0.019 0.126-0.034 0.16-0.027 0.059-0.098 0.006-0.228-0.115s-0.278-0.323-0.498-0.545c-0.326-0.326-0.705-0.587-1.143-0.751-0.435-0.168-0.92-0.238-1.412-0.249-0.987-0.017-2.014 0.228-2.947 0.653-0.688 0.323-1.343 0.741-1.851 1.274-0.125 0.134-0.241 0.273-0.346 0.418-0.050 0.073-0.094 0.148-0.143 0.222l-0.125 0.249-0.125 0.249-0.1 0.263c-0.073 0.173-0.12 0.354-0.167 0.535l-0.017-0.002z"></path>
<path d="M19.285 14.208c-0.385 0.564-0.718 1.174-1.029 1.801-0.114 0.229-0.197 0.472-0.306 0.706l-0.285 0.625c-0.148 0.33-0.289 0.739-0.493 0.916-0.051 0.044-0.096 0.092-0.159 0.107-0.015 0.005-0.032 0.010-0.051 0.013l-0.015 0.001-0.004 0.001h-0.001c-0.001-0.003 0.005 0.026 0.002 0.014h-0.002l-0.007-0-0.026-0c-0.033-0.003-0.065-0.008-0.095-0.018-0.122-0.043-0.25-0.111-0.381-0.225s-0.255-0.26-0.37-0.4l-0.155-0.186-0.109-0.136c-0.258-0.32-0.533-0.624-0.815-0.908-0.182-0.181-0.371-0.352-0.55-0.524l-0.136-0.126-0.067-0.060c-0.011-0.010-0.022-0.020-0.034-0.029-0.005-0.018-0.016-0.028-0.024-0.043-0.031-0.058-0.075-0.1-0.119-0.134-0.043-0.037-0.088-0.071-0.129-0.095-0.084-0.051-0.125-0.148 0.060-0.236 0.093-0.040 0.23-0.054 0.383-0.040 0.075 0.010 0.18-0.015 0.263 0.006 0.076 0.027 0.153 0.063 0.221 0.11 0.495 0.323 0.864 0.73 1.238 1.122l0.27 0.3 0.132 0.151 0.065 0.075c0.020 0.024 0.010 0.018 0.017 0.028 0.016 0.044 0.031 0.106 0.095 0.197 0.024 0.033 0.040 0.011 0.052 0.003 0.013-0.012 0.025-0.028 0.037-0.048 0.025-0.044 0.040-0.076 0.067-0.148 0.111-0.312 0.22-0.632 0.349-0.942 0.281-0.684 0.626-1.346 1.015-1.982 0.239-0.392 0.501-0.771 0.782-1.136 0.422-0.556 0.923-1.056 1.457-1.503 0.414-0.346 0.833-0.693 1.324-0.94 0.108-0.053 0.211-0.112 0.325-0.156 0.209-0.087 0.365-0.093 0.474-0.086 0.111 0.011 0.185 0.056 0.253 0.129 0.031 0.034 0.067 0.065 0.089 0.099 0.071 0.117-0.067 0.268-0.312 0.443-0.741 0.479-1.426 1.007-2.032 1.668-0.44 0.494-0.881 1.011-1.244 1.595l-0.022-0.012z"></path>
<path d="M6.664 7.054c0.783-0.384 1.54-0.833 2.262-1.338 0.263-0.186 0.508-0.394 0.763-0.59 0.905-0.686 1.766-1.441 2.557-2.268 0.348-0.369 0.68-0.757 0.984-1.158 0.195-0.258 0.38-0.523 0.562-0.788 0.173-0.271 0.398-0.507 0.587-0.764 0.121-0.155 0.212-0.090 0.249 0.129 0.019 0.11 0.022 0.257 0.002 0.426-0.027 0.163-0.050 0.363-0.16 0.525-0.364 0.587-0.768 1.141-1.207 1.667s-0.935 1.003-1.454 1.454c-0.623 0.536-1.229 1.138-1.893 1.654-0.728 0.568-1.501 1.080-2.306 1.535-0.497 0.276-1.004 0.537-1.525 0.766-0.787 0.353-1.609 0.629-2.432 0.864-0.638 0.189-1.272 0.371-1.93 0.486-0.145 0.022-0.287 0.051-0.434 0.068-0.273 0.037-0.456 0.013-0.584-0.029-0.128-0.044-0.202-0.121-0.26-0.241-0.027-0.055-0.061-0.109-0.076-0.164-0.050-0.184 0.164-0.35 0.533-0.431 0.275-0.050 0.55-0.124 0.828-0.173 0.275-0.075 0.554-0.123 0.832-0.193 0.558-0.124 1.116-0.282 1.671-0.456 0.823-0.268 1.636-0.597 2.416-1l0.012 0.019z"></path>
<path d="M17.065 31.357c-3.509-1.033-7.663-2.551-9.255-4.911-1.48-2.194-2.556-4.702-3.648-7.114-1.228-2.713-2.49-5.451-3.443-8.269l-0.481 0.962c0.953 2.819 2.215 5.556 3.443 8.269 1.092 2.413 2.167 4.921 3.648 7.114 1.375 2.038 7.533 4.645 8.692 4.32l1.044-0.371z"></path>
<path d="M21.982 5.78c-0.505-0.128-0.996-0.305-1.479-0.493-0.176-0.069-0.353-0.14-0.525-0.217-0.601-0.293-1.177-0.634-1.706-1.037-0.122-0.082-0.231-0.184-0.349-0.272-0.114-0.093-0.237-0.176-0.343-0.277-0.14-0.126-0.286-0.245-0.422-0.375-0.129-0.137-0.254-0.28-0.365-0.431-0.139-0.187 0.336-0.206 0.627 0.074 0.536 0.495 1.114 0.932 1.721 1.356 0.183 0.125 0.379 0.24 0.587 0.333l0.31 0.146 0.317 0.129c0.459 0.199 0.937 0.353 1.42 0.494 0.301 0.073 0.6 0.155 0.906 0.206 0.461 0.091 0.931 0.153 1.398 0.18 0.364 0.013 0.721-0.008 1.078-0.030l0.235-0.016c0.294-0.015 0.388 0.019 0.459 0.155 0.016 0.031 0.037 0.062 0.047 0.093 0.034 0.105-0.084 0.198-0.306 0.239-0.328 0.065-0.669 0.092-1.016 0.103-0.347 0.007-0.698-0.024-1.048-0.059-0.52-0.066-1.039-0.157-1.549-0.288l0.002-0.013z"></path>
</symbol>
<symbol id="icon-Icon-lamp" viewBox="0 0 23 32">
<path d="M10.675 29.089c-0.553-0.014-1.118-0.067-1.675-0.223-0.203-0.057-0.409-0.113-0.604-0.207-0.343-0.163-0.661-0.396-0.912-0.686-0.127-0.147-0.235-0.294-0.332-0.469-0.102-0.174-0.161-0.377-0.185-0.58-0.024-0.181-0.005-0.367 0.040-0.543 0.048-0.176 0.134-0.337 0.234-0.483 0.269-0.369 0.725-0.59 1.151-0.55 0.133 0.008 0.115 0.077 0.029 0.182-0.091 0.093-0.215 0.281-0.352 0.385-0.132 0.089-0.208 0.224-0.293 0.326-0.079 0.111-0.129 0.233-0.152 0.358-0.034 0.122-0.040 0.253-0.014 0.39s0.094 0.271 0.186 0.431c0.112 0.177 0.265 0.332 0.443 0.458 0.181 0.123 0.382 0.218 0.59 0.301 0.459 0.182 0.976 0.262 1.498 0.294 0.322 0.018 0.649 0.023 0.972 0.005 0.489-0.029 0.982-0.089 1.445-0.233 0.363-0.101 0.699-0.256 1.019-0.433 0.071-0.038 0.138-0.081 0.207-0.122 0.258-0.153 0.355-0.181 0.473-0.139 0.026 0.009 0.056 0.015 0.077 0.027 0.066 0.033 0.017 0.181-0.161 0.351-0.266 0.247-0.577 0.466-0.915 0.642-0.169 0.087-0.344 0.171-0.525 0.235-0.183 0.057-0.369 0.106-0.557 0.144-0.557 0.118-1.127 0.155-1.687 0.154l-0.001-0.015z"></path>
<path d="M12.182 29.3c-0.299 0.080-0.604 0.136-0.91 0.183-0.113 0.015-0.223 0.030-0.335 0.045-0.397 0.029-0.797 0.020-1.191-0.035-0.175-0.023-0.35-0.054-0.522-0.091-0.219-0.055-0.448-0.111-0.635-0.255-0.059-0.042-0.012-0.096 0.072-0.129 0.086-0.035 0.197-0.043 0.308-0.008 0.388 0.146 0.813 0.211 1.25 0.249 0.262 0.020 0.537-0.009 0.804-0.048 0.295-0.033 0.588-0.094 0.878-0.167 0.179-0.043 0.354-0.101 0.53-0.156l0.396-0.14c0.129-0.053 0.258-0.108 0.385-0.166 0.194-0.096 0.374-0.209 0.562-0.31l0.121-0.071c0.155-0.084 0.216-0.090 0.276-0.065 0.014 0.006 0.030 0.010 0.040 0.018 0.035 0.024-0.009 0.091-0.11 0.18-0.297 0.265-0.656 0.483-1.038 0.653-0.281 0.134-0.578 0.238-0.879 0.321l-0.003-0.008z"></path>
<path d="M12.766 31.185c0.095-0.081 0.176-0.196 0.251-0.317 0.029-0.043 0.039-0.098 0.066-0.143 0.092-0.166 0.173-0.345 0.253-0.53 0.039-0.080 0.067-0.167 0.098-0.253 0.043-0.109 0.070-0.233 0.193-0.322 0.035-0.027 0.075 0.027 0.112 0.094 0.035 0.070 0.078 0.129 0.067 0.186-0.053 0.183-0.076 0.42-0.208 0.626-0.071 0.125-0.101 0.274-0.164 0.411-0.068 0.151-0.158 0.296-0.259 0.434-0.073 0.079-0.137 0.164-0.226 0.23l-0.096 0.078-0.11 0.059c-0.070 0.045-0.149 0.068-0.226 0.097-0.059 0.027-0.117 0.046-0.179 0.063-0.060 0.016-0.123 0.044-0.185 0.049-0.027 0.004-0.054 0.004-0.082 0.002-0.103-0.013-0.133-0.044-0.14-0.147-0.002-0.022-0.005-0.043-0.005-0.063 0-0.063 0.047-0.141 0.106-0.169 0.183-0.091 0.319-0.12 0.451-0.185 0.089-0.058 0.191-0.107 0.274-0.204l0.008 0.007z"></path>
<path d="M8.164 26.027c-0.073 0.030-0.16 0.064-0.236 0.122-0.027 0.021-0.043 0.052-0.070 0.074-0.098 0.077-0.195 0.167-0.266 0.273-0.026 0.047-0.043 0.102-0.039 0.15-0.002 0.069 0.023 0.105-0.028 0.158-0.018 0.018-0.131 0.071-0.257 0.084-0.122 0.020-0.28-0.038-0.293-0.118-0.033-0.144-0.005-0.271 0.039-0.376 0.043-0.108 0.109-0.196 0.188-0.271 0.097-0.086 0.14-0.203 0.225-0.294 0.094-0.098 0.198-0.185 0.317-0.257 0.070-0.046 0.152-0.078 0.23-0.113 0.060-0.025 0.128-0.038 0.191-0.057 0.069-0.006 0.134-0.022 0.202-0.027 0.053-0.001 0.108-0.014 0.164-0.016 0.055 0.003 0.113 0.006 0.17 0.015 0.026 0.002 0.046 0.016 0.067 0.029 0.073 0.058 0.075 0.108 0.023 0.213-0.012 0.024-0.023 0.048-0.037 0.070-0.045 0.073-0.113 0.125-0.165 0.153-0.162 0.092-0.171 0.119-0.24 0.135-0.044 0.010-0.109 0.030-0.175 0.065l-0.009-0.013z"></path>
<path d="M3.152 21.117c-0.7-0.812-1.331-1.691-1.835-2.643-0.097-0.171-0.182-0.349-0.265-0.527-0.088-0.176-0.167-0.356-0.235-0.541-0.515-1.289-0.726-2.695-0.623-4.071 0.017-0.306 0.068-0.609 0.104-0.913 0.065-0.299 0.102-0.604 0.188-0.895 0.172-0.756 0.466-1.509 0.922-2.144 0.143-0.197 0.156-0.146 0.087 0.049-0.072 0.195-0.194 0.549-0.355 0.951-0.071 0.179-0.134 0.361-0.191 0.544s-0.096 0.375-0.15 0.56c-0.053 0.186-0.101 0.374-0.133 0.565-0.033 0.191-0.084 0.378-0.104 0.571-0.122 0.765-0.131 1.546-0.057 2.321 0.089 0.931 0.378 1.874 0.783 2.741 0.44 0.957 1.003 1.862 1.665 2.691 0.402 0.515 0.837 1.005 1.295 1.473 0.69 0.713 1.43 1.385 2.184 2.022 0.587 0.495 1.184 0.954 1.775 1.435 0.129 0.107 0.26 0.207 0.386 0.321 0.472 0.415 0.6 0.576 0.647 0.72 0.011 0.032 0.030 0.071 0.032 0.093 0.008 0.076-0.203-0.070-0.556-0.357-1.053-0.844-2.194-1.717-3.278-2.675-0.804-0.712-1.584-1.466-2.292-2.286l0.005-0.006z"></path>
<path d="M1.759 8.832c0.46-0.614 1.002-1.155 1.593-1.629 0.605-0.455 1.252-0.847 1.936-1.161 1.373-0.61 2.871-0.943 4.38-0.895 0.55 0.017 1.1 0.080 1.631 0.186 0.268 0.053 0.534 0.117 0.799 0.195 0.264 0.077 0.523 0.188 0.783 0.284 0.901 0.394 1.703 1 2.342 1.733 0.642 0.732 1.126 1.585 1.458 2.482 0.674 1.796 0.804 3.746 0.552 5.609-0.101 0.83-0.277 1.649-0.495 2.452-0.211 0.806-0.487 1.59-0.781 2.359-0.379 0.989-0.834 1.949-1.341 2.878-0.503 0.932-1.074 1.824-1.695 2.676-0.389 0.53-0.408 0.407-0.188-0.111 0.113-0.257 0.271-0.62 0.475-1.049 0.196-0.433 0.438-0.929 0.715-1.459 0.494-0.938 0.917-1.907 1.321-2.88 0.396-0.977 0.735-1.975 0.99-2.993 0.515-2.031 0.675-4.165 0.184-6.201-0.15-0.605-0.36-1.201-0.637-1.768-0.278-0.567-0.638-1.093-1.059-1.562-0.422-0.467-0.909-0.88-1.459-1.185s-1.133-0.54-1.755-0.684c-2.72-0.681-5.753 0.027-7.931 1.816-0.666 0.551-1.245 1.21-1.67 1.959-0.095 0.193-0.198 0.382-0.288 0.577l-0.224 0.604c-0.112 0.421-0.228 0.842-0.285 1.275l-0.041 0.244-0.020 0.247-0.039 0.494 0.003 0.495 0.003 0.247 0.023 0.247c0.039 0.661 0.192 1.31 0.38 1.945 0.192 0.636 0.468 1.243 0.769 1.835 0.315 0.586 0.672 1.148 1.060 1.687 1.221 1.674 2.724 3.064 4.265 4.425 0.341 0.3 0.68 0.587 1.019 0.899 1.26 1.144 1.603 1.646 1.668 2.053 0.014 0.093 0.030 0.209 0.022 0.262-0.008 0.046-0.036 0.041-0.085 0-0.051-0.041-0.105-0.122-0.214-0.225-0.201-0.21-0.534-0.536-0.996-0.942-1.384-1.188-2.874-2.397-4.236-3.795-1.36-1.393-2.633-2.978-3.469-4.839-0.312-0.688-0.545-1.417-0.707-2.163-0.165-0.747-0.207-1.52-0.183-2.285 0.028-0.768 0.181-1.523 0.38-2.259 0.232-0.748 0.584-1.454 1.030-2.090l0.017 0.007z"></path>
<path d="M9.313 28.62c0.745 0.136 1.537 0.114 2.313-0.013 0.281-0.049 0.567-0.128 0.839-0.188 0.459-0.119 0.927-0.337 1.354-0.591 0.426-0.257 0.823-0.573 1.1-0.956 0.233-0.345 0.288-0.759 0.081-1.099-0.129-0.215-0.345-0.393-0.578-0.539-0.238-0.14-0.492-0.268-0.762-0.364-0.168-0.056-0.143-0.111 0.030-0.16 0.167-0.038 0.509-0.091 0.858 0.064 0.305 0.136 0.605 0.321 0.848 0.618 0.127 0.146 0.203 0.337 0.275 0.524 0.021 0.1 0.037 0.203 0.046 0.305 0.003 0.102-0.015 0.202-0.025 0.303-0.077 0.395-0.283 0.709-0.505 0.968-0.224 0.263-0.489 0.462-0.76 0.641-0.326 0.212-0.664 0.402-1.018 0.572-0.177 0.085-0.359 0.163-0.547 0.23-0.093 0.035-0.194 0.061-0.291 0.091l-0.281 0.061c-0.82 0.183-1.671 0.278-2.522 0.206-0.523-0.046-1.043-0.155-1.538-0.347-0.374-0.149-0.727-0.361-1.037-0.629-0.306-0.273-0.556-0.625-0.68-1.033-0.089-0.316-0.103-0.672 0.005-0.995 0.111-0.322 0.319-0.599 0.567-0.812 0.109-0.094 0.22-0.181 0.344-0.253 0.229-0.135 0.401-0.175 0.522-0.191 0.123-0.010 0.203 0.018 0.274 0.077 0.032 0.026 0.071 0.049 0.092 0.077 0.071 0.095-0.094 0.232-0.365 0.403-0.404 0.248-0.743 0.592-0.835 0.959-0.056 0.183-0.046 0.363-0.003 0.554 0.052 0.191 0.164 0.377 0.301 0.55 0.435 0.514 1.157 0.823 1.9 0.949l-0.001 0.015z"></path>
<path d="M8.533 27.237c0.413 0.173 0.873 0.286 1.343 0.341 0.172 0.021 0.346 0.018 0.519 0.025 0.612 0.027 1.237-0.018 1.837-0.171 0.265-0.068 0.526-0.162 0.764-0.285 0.307-0.161 0.574-0.368 0.812-0.599 0.075-0.072 0.132-0.031 0.142 0.096 0.017 0.129-0.036 0.353-0.211 0.512-0.62 0.54-1.387 0.791-2.151 0.866-0.458 0.044-0.929 0.114-1.4 0.1-0.516-0.015-1.034-0.083-1.534-0.244-0.306-0.099-0.606-0.231-0.883-0.409-0.208-0.136-0.403-0.302-0.563-0.501-0.075-0.104-0.15-0.207-0.206-0.323-0.064-0.104-0.111-0.27-0.108-0.411 0.003-0.229 0.091-0.432 0.202-0.601 0.114-0.17 0.256-0.314 0.421-0.431 0.071-0.053 0.146-0.1 0.227-0.14 0.312-0.139 0.455-0.085 0.525 0.038 0.017 0.029 0.036 0.056 0.044 0.084 0.022 0.095-0.079 0.182-0.229 0.264-0.229 0.121-0.445 0.318-0.562 0.523-0.059 0.101-0.084 0.2-0.079 0.265 0.001 0.034 0.011 0.060 0.024 0.087 0.016 0.034 0.060 0.104 0.086 0.156 0.205 0.321 0.566 0.577 0.983 0.743l-0.005 0.013z"></path>
<path d="M10.214 29.911c0.385 0.091 0.805 0.104 1.223 0.067 0.153-0.011 0.302-0.053 0.455-0.078 0.54-0.088 1.073-0.256 1.583-0.479 0.224-0.104 0.438-0.232 0.632-0.377 0.256-0.183 0.46-0.41 0.671-0.621 0.071-0.064 0.134-0.025 0.165 0.097 0.014 0.060 0.026 0.148 0.008 0.239-0.021 0.084-0.062 0.178-0.127 0.261-0.486 0.542-1.092 0.931-1.762 1.136-0.402 0.115-0.802 0.283-1.225 0.356-0.463 0.084-0.939 0.113-1.414 0.066-0.292-0.031-0.585-0.1-0.86-0.198-0.417-0.153-0.811-0.388-1.137-0.694-0.255-0.234-0.49-0.498-0.658-0.807-0.034-0.069-0.068-0.137-0.097-0.209-0.084-0.276-0.036-0.381 0.079-0.466 0.027-0.020 0.051-0.042 0.076-0.055 0.082-0.043 0.205 0.039 0.313 0.189 0.158 0.224 0.296 0.434 0.453 0.627s0.343 0.359 0.553 0.499c0.309 0.208 0.693 0.359 1.073 0.434l-0.002 0.016z"></path>
<path d="M8.605 11.977c-0.011-0.146-0.011-0.297-0.003-0.45l0.017-0.237 0.028-0.171c0.016-0.062 0.039-0.121 0.058-0.182 0.081-0.244 0.271-0.403 0.496-0.45 0.227-0.045 0.464 0.033 0.647 0.199 0.044 0.043 0.090 0.087 0.127 0.136 0.041 0.049 0.079 0.097 0.096 0.129 0.046 0.072 0.083 0.144 0.118 0.215 0.070 0.142 0.123 0.282 0.171 0.422 0.090 0.282 0.166 0.574 0.2 0.864 0.144 1.16-0.030 2.329-0.538 3.379-0.093 0.191-0.202 0.377-0.323 0.556-0.061 0.090-0.143 0.181-0.215 0.271-0.086 0.082-0.173 0.166-0.271 0.237-0.4 0.29-0.936 0.366-1.375 0.262-0.395-0.081-0.745-0.248-1.062-0.448-0.318-0.202-0.604-0.437-0.863-0.711-0.263-0.282-0.467-0.592-0.639-0.921-0.17-0.329-0.309-0.677-0.38-1.054-0.069-0.372-0.082-0.789 0.101-1.176 0.086-0.188 0.205-0.356 0.377-0.498 0.169-0.142 0.405-0.225 0.629-0.218 0.455 0.015 0.797 0.289 1.055 0.539 0.267 0.26 0.487 0.554 0.68 0.86 0.682 1.091 1.063 2.315 1.424 3.49 0.236 0.759 0.444 1.538 0.576 2.334 0.062 0.399 0.11 0.801 0.122 1.204s-0.008 0.808-0.046 1.207c-0.061 0.498-0.134 0.419-0.212-0.001-0.043-0.224-0.099-0.514-0.163-0.851-0.077-0.348-0.155-0.749-0.228-1.185-0.132-0.774-0.353-1.532-0.589-2.295-0.23-0.772-0.46-1.539-0.74-2.269-0.28-0.728-0.62-1.443-1.111-1.997-0.121-0.138-0.258-0.268-0.386-0.357-0.133-0.088-0.276-0.142-0.396-0.142-0.121-0.003-0.226 0.040-0.329 0.139s-0.189 0.248-0.233 0.392c-0.114 0.365-0.026 0.833 0.146 1.255 0.171 0.425 0.428 0.841 0.74 1.167 0.327 0.331 0.72 0.615 1.136 0.804 0.414 0.179 0.872 0.265 1.23 0.097 0.198-0.086 0.368-0.237 0.508-0.427 0.143-0.207 0.269-0.432 0.374-0.668 0.203-0.475 0.339-0.988 0.396-1.508 0.063-0.521 0.050-1.050-0.042-1.56-0.052-0.252-0.121-0.501-0.218-0.739-0.048-0.117-0.103-0.229-0.165-0.326-0.051-0.080-0.077-0.111-0.137-0.145-0.071-0.040-0.16 0.002-0.188 0.076-0.015 0.034-0.029 0.074-0.034 0.109-0.013 0.058-0.027 0.143-0.030 0.218-0.015 0.311 0.020 0.639 0.081 0.958s0.15 0.636 0.273 0.933c0.12 0.289 0.284 0.593 0.494 0.737 0.173 0.106 0.387 0.158 0.593 0.119 0.208-0.035 0.412-0.147 0.591-0.294 0.356-0.297 0.642-0.722 0.778-1.163 0.068-0.209 0.070-0.449 0.039-0.677-0.033-0.224-0.115-0.447-0.249-0.561-0.139-0.115-0.277-0.114-0.424 0.025-0.147 0.141-0.267 0.354-0.358 0.572-0.075 0.17-0.118 0.344-0.161 0.536-0.048 0.186-0.080 0.375-0.111 0.564-0.056 0.379-0.089 0.76-0.098 1.142-0.017 0.763 0.041 1.526 0.173 2.278 0.058 0.331 0.131 0.652 0.214 0.98 0.151 0.609 0.281 1 0.351 1.283 0.074 0.282 0.085 0.458 0.064 0.616-0.010 0.072-0.011 0.163-0.029 0.211-0.047 0.16-0.408-0.263-0.733-1.175-0.47-1.35-0.704-2.827-0.64-4.332 0.020-0.376 0.056-0.754 0.119-1.13 0.035-0.187 0.056-0.378 0.102-0.565l0.062-0.285c0.027-0.108 0.060-0.205 0.095-0.304 0.073-0.196 0.16-0.389 0.287-0.584 0.127-0.186 0.297-0.415 0.668-0.538 0.177-0.040 0.373-0.044 0.539 0.037 0.176 0.058 0.301 0.165 0.403 0.278 0.202 0.232 0.278 0.475 0.33 0.702 0.065 0.342 0.073 0.656-0.014 1.018-0.091 0.33-0.236 0.61-0.411 0.872-0.177 0.259-0.388 0.498-0.649 0.699-0.259 0.198-0.583 0.367-0.966 0.398-0.093 0.014-0.192-0.003-0.287-0.007-0.095-0.012-0.187-0.042-0.279-0.066-0.086-0.035-0.17-0.077-0.253-0.117-0.093-0.055-0.174-0.121-0.241-0.187-0.257-0.269-0.389-0.548-0.507-0.826-0.221-0.559-0.353-1.122-0.398-1.716l0.013-0.004z"></path>
<path d="M20.18 12.683c-0.007 0.051-0.074 0.029-0.179-0.033-0.034-0.020-0.113-0.101-0.115-0.121-0.005-0.039-0.010-0.078-0.007-0.111 0-0.020 0.133-0.232 0.18-0.306 0.044-0.073 0.101-0.132 0.164-0.184 0.124-0.11 0.257-0.213 0.398-0.306 0.031-0.020 0.066-0.035 0.104-0.045 0.13-0.031 0.242-0.088 0.354-0.155 0.019-0.011 0.040-0.016 0.051-0.044 0.014-0.051 0.348-0.183 0.399-0.177 0.122 0.005 0.238-0.001 0.356 0.014 0.017 0.002 0.032-0.010 0.051 0.013 0.044 0.054 0.075 0.039 0.11 0.039 0.048-0.001 0.096 0.004 0.145 0.020 0.024 0.008 0.049 0.039 0.073 0.063 0.022 0.022 0.016 0.11 0.010 0.12-0.018 0.029 0.001 0.068 0.005 0.104 0.001 0.012 0.003 0.028 0.003 0.038-0.005 0.019-0.214 0.201-0.234 0.208-0.003-0.002-0.082 0.032-0.162 0.064s-0.163 0.071-0.179 0.083c-0.016 0.011-0.039 0.003-0.060 0.001-0.012-0.003-0.237 0.135-0.245 0.14-0.052 0.016-0.091 0.059-0.163 0.037-0.014-0.004-0.023 0.004-0.032 0.010-0.080 0.050-0.172 0.080-0.262 0.12-0.045 0.021-0.083 0.053-0.124 0.080-0.008 0.005-0.019 0.004-0.028 0.006-0.012 0.003-0.025 0.004-0.034 0.011-0.095 0.068-0.208 0.118-0.288 0.209-0.019 0.019-0.157 0.062-0.176 0.089-0.011 0.014-0.11-0.004-0.112 0.017z"></path>
<path d="M17.365 6.172c-0.007 0.053-0.079 0.029-0.188-0.034-0.035-0.020-0.117-0.104-0.12-0.124-0.006-0.041-0.011-0.082-0.010-0.117 0-0.021 0.127-0.248 0.17-0.33 0.040-0.079 0.095-0.143 0.155-0.202 0.122-0.118 0.252-0.227 0.381-0.331 0.029-0.023 0.062-0.040 0.099-0.051 0.126-0.037 0.227-0.107 0.318-0.19 0.015-0.014 0.034-0.022 0.037-0.053 0.005-0.051 0.265-0.244 0.307-0.254 0.109-0.023 0.207-0.061 0.311-0.094 0.015-0.004 0.023-0.020 0.051-0.004 0.067 0.037 0.086 0.009 0.115-0.005 0.041-0.020 0.082-0.038 0.132-0.047 0.025-0.005 0.065 0.012 0.101 0.022 0.033 0.009 0.086 0.091 0.087 0.104 0.003 0.037 0.045 0.062 0.072 0.093 0.009 0.010 0.021 0.024 0.027 0.033 0.014 0.018-0.084 0.329-0.108 0.349 0.001 0.013-0.294 0.277-0.324 0.312-0.015 0.018-0.044 0.018-0.068 0.023-0.012 0.003-0.238 0.218-0.249 0.222-0.057 0.028-0.096 0.083-0.18 0.070-0.017-0.003-0.025 0.007-0.035 0.015-0.083 0.066-0.182 0.107-0.276 0.155-0.047 0.025-0.086 0.062-0.129 0.092-0.008 0.006-0.020 0.005-0.030 0.008-0.013 0.004-0.027 0.004-0.036 0.012-0.094 0.082-0.218 0.127-0.301 0.222-0.020 0.019-0.168 0.062-0.188 0.089-0.012 0.014-0.116-0.006-0.119 0.016z"></path>
<path d="M13.576 31.139c-0.155 0.221-0.338 0.443-0.582 0.617-0.092 0.059-0.178 0.129-0.285 0.166-0.183 0.076-0.397 0.095-0.584 0.065-0.189-0.029-0.36-0.093-0.513-0.176-0.136-0.073-0.268-0.148-0.393-0.229-0.079-0.053-0.16-0.104-0.234-0.165-0.070-0.064-0.13-0.141-0.179-0.225-0.030-0.053 0.025-0.097 0.115-0.122 0.088-0.023 0.216-0.041 0.307 0 0.283 0.198 0.567 0.362 0.849 0.471 0.179 0.065 0.348 0.015 0.512-0.076 0.179-0.097 0.338-0.258 0.476-0.449 0.086-0.116 0.163-0.245 0.237-0.377 0.109-0.201 0.219-0.41 0.314-0.625 0.072-0.167 0.122-0.347 0.201-0.518 0.018-0.037 0.031-0.077 0.052-0.114 0.085-0.131 0.154-0.147 0.277-0.097 0.027 0.010 0.053 0.018 0.074 0.028 0.064 0.030 0.124 0.148 0.1 0.25-0.069 0.306-0.197 0.592-0.349 0.894-0.112 0.224-0.238 0.453-0.385 0.684l-0.011-0.006z"></path>
<path d="M9.633 2.86c0.032 0.046-0.031 0.088-0.145 0.126-0.037 0.012-0.148 0.014-0.165 0.001-0.033-0.025-0.066-0.049-0.090-0.074-0.013-0.016-0.103-0.263-0.146-0.344-0.039-0.079-0.059-0.159-0.076-0.239-0.034-0.162-0.084-0.322-0.112-0.483-0.007-0.036-0.006-0.072 0-0.11 0.024-0.13 0.001-0.254-0.040-0.375-0.007-0.020-0.008-0.042-0.037-0.057-0.050-0.024-0.132-0.356-0.11-0.407 0.030-0.12 0.039-0.237 0.054-0.356 0.002-0.017-0.011-0.032 0.015-0.053 0.058-0.049 0.038-0.080 0.042-0.117 0.004-0.051 0.006-0.101 0.023-0.155 0.017-0.029 0.052-0.063 0.074-0.092 0.020-0.027 0.080-0.030 0.091-0.025 0.027 0.016 0.055-0.010 0.080-0.018 0.009-0.003 0.020-0.007 0.028-0.008 0.029-0.006 0.325 0.212 0.319 0.246 0.001 0.003 0.044 0.101 0.090 0.206s0.095 0.212 0.108 0.234c0.014 0.023 0.004 0.051 0.001 0.077 0.003 0.011 0.114 0.335 0.114 0.349 0.003 0.071 0.039 0.137-0.012 0.217-0.010 0.016-0.004 0.029-0.001 0.043 0.026 0.119 0.017 0.243 0.015 0.365-0.001 0.063 0.013 0.123 0.013 0.186 0 0.011-0.008 0.023-0.012 0.035-0.004 0.015-0.012 0.030-0.011 0.044 0.010 0.146-0.018 0.294 0.004 0.438 0.005 0.033-0.057 0.196-0.049 0.233 0.004 0.022-0.079 0.095-0.065 0.113z"></path>
<path d="M0.173 3.373c-0.062-0.008-0.030-0.091 0.061-0.213 0.029-0.039 0.14-0.131 0.164-0.135 0.046-0.008 0.092-0.016 0.129-0.017 0.022 0.002 0.234 0.115 0.315 0.139 0.075 0.027 0.137 0.069 0.196 0.114l0.375 0.262c0.028 0.020 0.051 0.046 0.072 0.077 0.070 0.108 0.171 0.177 0.281 0.23 0.018 0.009 0.034 0.024 0.064 0.013 0.047-0.017 0.335 0.154 0.364 0.193 0.070 0.096 0.15 0.178 0.226 0.266 0.011 0.013 0.031 0.013 0.028 0.046-0.006 0.076 0.030 0.083 0.057 0.105 0.037 0.030 0.073 0.064 0.103 0.108 0.015 0.022 0.015 0.067 0.018 0.105 0.004 0.035-0.059 0.117-0.071 0.123-0.035 0.017-0.045 0.067-0.065 0.105-0.007 0.013-0.016 0.029-0.022 0.039-0.015 0.020-0.337 0.036-0.363 0.020-0.003-0.001-0.097-0.039-0.197-0.081-0.1-0.040-0.205-0.082-0.228-0.088s-0.037-0.032-0.053-0.053c-0.007-0.008-0.318-0.127-0.328-0.137-0.054-0.042-0.127-0.058-0.152-0.145-0.005-0.017-0.018-0.022-0.030-0.028-0.106-0.057-0.192-0.143-0.28-0.226-0.046-0.042-0.1-0.072-0.15-0.11-0.009-0.007-0.012-0.021-0.018-0.031-0.008-0.012-0.013-0.029-0.025-0.037-0.117-0.090-0.205-0.212-0.328-0.297-0.030-0.019-0.093-0.187-0.125-0.209-0.020-0.013 0.007-0.134-0.017-0.137z"></path>
</symbol>
<symbol id="icon-heart-icon" viewBox="0 0 35 32">
<path d="M17.561 32c-0.38 0-0.756-0.073-1.128-0.22-0.373-0.145-0.701-0.368-0.984-0.669l-2.245-2.144c-3.481-3.35-6.551-6.608-9.211-9.774-2.662-3.165-3.993-6.454-3.993-9.869 0-2.636 0.845-4.848 2.534-6.639s3.778-2.685 6.266-2.685c1.426 0 2.912 0.382 4.457 1.146s2.993 2.205 4.343 4.322c1.352-2.118 2.8-3.558 4.343-4.322s3.029-1.146 4.457-1.146c2.488 0 4.576 0.895 6.266 2.685s2.534 4.003 2.534 6.639c0 3.493-1.385 6.851-4.156 10.074s-5.803 6.415-9.097 9.577l-2.233 2.136c-0.284 0.301-0.619 0.524-1.003 0.669s-0.767 0.218-1.148 0.22zM16.644 7.619c-1.171-2-2.388-3.425-3.651-4.275-1.263-0.848-2.661-1.272-4.193-1.272-1.956 0-3.585 0.691-4.889 2.072s-1.956 3.108-1.956 5.18c0 1.53 0.409 3.1 1.226 4.708 0.817 1.609 1.915 3.257 3.293 4.944 1.377 1.685 2.96 3.411 4.75 5.176 1.787 1.764 3.649 3.58 5.585 5.447 0.226 0.213 0.489 0.319 0.79 0.319s0.564-0.106 0.79-0.319c1.936-1.868 3.798-3.684 5.587-5.449 1.789-1.763 3.372-3.487 4.75-5.174 1.377-1.688 2.474-3.336 3.291-4.944s1.226-3.177 1.226-4.708c0-2.072-0.652-3.799-1.956-5.18s-2.933-2.072-4.889-2.072c-1.532 0-2.929 0.425-4.193 1.274-1.265 0.848-2.482 2.272-3.651 4.272-0.104 0.186-0.244 0.326-0.419 0.419s-0.354 0.139-0.538 0.139c-0.184 0-0.363-0.046-0.538-0.139s-0.314-0.232-0.416-0.419z"></path>
</symbol>
<symbol id="icon-Star1" viewBox="0 0 35 32">
<path fill="#4987ba" style="fill: var(--color1, #4987ba)" d="M17.455 0l3.919 12.061h12.681l-10.259 7.454 3.919 12.061-10.259-7.454-10.26 7.454 3.919-12.061-10.26-7.454h12.681l3.919-12.061z"></path>
</symbol>
<symbol id="icon-Star2" viewBox="0 0 35 32">
<path stroke-linejoin="miter" stroke-linecap="butt" stroke-miterlimit="4" stroke-width="1.4545" d="M17.455 2.353l3.39 10.435h10.971l-8.876 6.449 0.163 0.503 3.227 9.932-8.876-6.449-8.876 6.449 3.39-10.435-8.876-6.449h10.972l3.39-10.435z"></path>
</symbol>
<symbol id="icon-el_quotes" viewBox="0 0 32 32">
<path fill="#4987ba" style="fill: var(--color1, #4987ba)" d="M13.826 2.809c-5.671 0.398-13.822 1.304-13.826 12.409v13.973h12.653v-14.95h-4.202c-0.266-3.992 3.021-5.023 6.595-5.814l-1.221-5.618zM30.779 2.809c-5.671 0.398-13.822 1.304-13.826 12.409v13.973h12.653v-14.95h-4.202c-0.266-3.992 3.021-5.023 6.595-5.814l-1.221-5.618z"></path>
</symbol>
</defs>
</svg>
