<svg aria-hidden="true" style="position: absolute; width: 0; height: 0; overflow: hidden;" version="1.1" xmlns="http://www.w3.org/2000/svg" xmlns:xlink="http://www.w3.org/1999/xlink">
<defs>
<symbol id="icon-iconbohdana" viewBox="0 0 31 32">
<path stroke-linejoin="round" stroke-linecap="round" stroke-miterlimit="4" stroke-width="1.28" d="M26.88 27.52l-5.559-5.559M21.321 21.961c0.951-0.951 1.705-2.080 2.22-3.322s0.78-2.574 0.78-3.919-0.265-2.676-0.78-3.919c-0.515-1.242-1.269-2.371-2.22-3.322s-2.080-1.705-3.322-2.22-2.574-0.779-3.919-0.779c-1.345 0-2.676 0.265-3.919 0.779s-2.371 1.269-3.322 2.22c-1.92 1.92-2.999 4.525-2.999 7.241s1.079 5.321 2.999 7.241c1.92 1.92 4.525 2.999 7.241 2.999s5.32-1.079 7.241-2.999z"></path>
</symbol>
<symbol id="icon-personbohdana" viewBox="0 0 31 32">
<path stroke-linejoin="round" stroke-linecap="round" stroke-miterlimit="4" stroke-width="1.2824" d="M20.642 9.28c-0.235 3.173-2.64 5.761-5.281 5.761s-5.050-2.588-5.281-5.761c-0.24-3.3 2.1-5.761 5.281-5.761s5.521 2.52 5.281 5.761z"></path>
<path stroke-linejoin="miter" stroke-linecap="butt" stroke-miterlimit="10" stroke-width="1.2824" d="M15.36 18.88c-5.22 0-10.518 2.88-11.498 8.316-0.118 0.655 0.253 1.284 0.938 1.284h21.12c0.686 0 1.057-0.629 0.939-1.284-0.981-5.436-6.279-8.316-11.499-8.316z"></path>
</symbol>
<symbol id="icon-heartbohdana" viewBox="0 0 31 32">
<path d="M15.329 28.8c-0.304 0-0.604-0.059-0.903-0.176-0.298-0.116-0.56-0.294-0.787-0.535l-1.796-1.716c-2.785-2.68-5.241-5.286-7.369-7.819-2.13-2.532-3.195-5.163-3.195-7.895 0-2.108 0.676-3.879 2.028-5.311s3.022-2.148 5.012-2.148c1.141 0 2.329 0.306 3.565 0.917s2.394 1.764 3.475 3.458c1.082-1.694 2.24-2.847 3.475-3.458s2.423-0.917 3.565-0.917c1.99 0 3.661 0.716 5.012 2.148s2.028 3.202 2.028 5.311c0 2.795-1.108 5.481-3.324 8.059s-4.642 5.132-7.278 7.661l-1.787 1.709c-0.227 0.241-0.495 0.419-0.803 0.535s-0.614 0.175-0.918 0.176zM14.595 9.295c-0.937-1.6-1.91-2.74-2.921-3.42-1.011-0.678-2.129-1.018-3.354-1.018-1.564 0-2.868 0.553-3.911 1.658s-1.564 2.486-1.564 4.144c0 1.224 0.327 2.48 0.981 3.766 0.654 1.287 1.532 2.606 2.635 3.955 1.101 1.348 2.368 2.728 3.8 4.141 1.43 1.411 2.919 2.864 4.468 4.358 0.18 0.17 0.391 0.255 0.632 0.255s0.452-0.085 0.632-0.255c1.549-1.494 3.039-2.947 4.47-4.36 1.431-1.41 2.698-2.79 3.8-4.139 1.101-1.35 1.979-2.669 2.633-3.955s0.981-2.542 0.981-3.766c0-1.658-0.521-3.039-1.564-4.144s-2.347-1.658-3.911-1.658c-1.225 0-2.344 0.34-3.354 1.019-1.012 0.678-1.985 1.818-2.921 3.418-0.083 0.149-0.195 0.261-0.335 0.335s-0.283 0.111-0.43 0.111c-0.147 0-0.29-0.037-0.43-0.111s-0.251-0.186-0.333-0.335z"></path>
</symbol>
<symbol id="icon-bagbohdana" viewBox="0 0 31 32">
<path stroke-linejoin="round" stroke-linecap="round" stroke-miterlimit="4" stroke-width="1.28" d="M9.6 11.2v-1.92c0-1.528 0.607-2.993 1.687-4.073s2.545-1.687 4.073-1.687c1.528 0 2.993 0.607 4.073 1.687s1.687 2.545 1.687 4.073v1.92M4.8 11.2c-0.255 0-0.499 0.101-0.679 0.281s-0.281 0.424-0.281 0.679v12.96c0 1.814 1.546 3.36 3.36 3.36h16.32c1.814 0 3.36-1.471 3.36-3.285v-13.035c0-0.255-0.101-0.499-0.281-0.679s-0.424-0.281-0.679-0.281h-21.12z"></path>
</symbol>
<symbol id="icon-searchbohdana" viewBox="0 0 34 32">
<path stroke-linejoin="round" stroke-linecap="round" stroke-miterlimit="4" stroke-width="1.6842" d="M32 31.158l-7.315-7.315M24.685 23.843c1.251-1.251 2.244-2.736 2.921-4.371s1.026-3.387 1.026-5.156-0.349-3.522-1.026-5.156c-0.677-1.635-1.67-3.12-2.921-4.371s-2.737-2.244-4.371-2.921-3.387-1.026-5.156-1.026c-1.769 0-3.522 0.349-5.156 1.026s-3.12 1.67-4.371 2.921c-2.527 2.527-3.946 5.954-3.946 9.528s1.42 7.001 3.946 9.528c2.527 2.527 5.954 3.946 9.528 3.946s7.001-1.42 9.528-3.946z"></path>
</symbol>
<symbol id="icon-heart-bohdana" viewBox="0 0 34 32">
<path d="M16.725 31.238c-0.361 0-0.72-0.070-1.075-0.209-0.355-0.138-0.667-0.35-0.937-0.637l-2.138-2.042c-3.315-3.19-6.239-6.293-8.772-9.308-2.535-3.014-3.803-6.147-3.803-9.399 0-2.51 0.805-4.618 2.414-6.323s3.598-2.557 5.967-2.557c1.358 0 2.773 0.364 4.244 1.091s2.85 2.1 4.136 4.116c1.288-2.017 2.666-3.389 4.137-4.116s2.885-1.091 4.244-1.091c2.369 0 4.358 0.852 5.967 2.557s2.414 3.812 2.414 6.323c0 3.327-1.319 6.525-3.958 9.594s-5.527 6.109-8.664 9.121l-2.127 2.034c-0.271 0.287-0.589 0.499-0.955 0.637s-0.731 0.208-1.093 0.209zM15.851 8.018c-1.115-1.905-2.274-3.262-3.477-4.071-1.203-0.808-2.534-1.212-3.993-1.212-1.862 0-3.414 0.658-4.656 1.973s-1.862 2.96-1.862 4.933c0 1.458 0.389 2.952 1.168 4.483 0.778 1.533 1.824 3.102 3.136 4.708 1.311 1.605 2.819 3.248 4.524 4.929 1.702 1.68 3.475 3.409 5.319 5.188 0.215 0.203 0.466 0.304 0.752 0.304s0.538-0.101 0.752-0.304c1.844-1.779 3.617-3.509 5.321-5.19 1.703-1.679 3.211-3.321 4.524-4.927 1.311-1.608 2.356-3.177 3.134-4.708s1.168-3.026 1.168-4.483c0-1.973-0.621-3.618-1.862-4.933s-2.794-1.973-4.656-1.973c-1.459 0-2.79 0.405-3.993 1.214-1.204 0.808-2.363 2.164-3.477 4.069-0.099 0.178-0.232 0.31-0.399 0.399s-0.337 0.132-0.512 0.132c-0.175 0-0.346-0.044-0.512-0.132s-0.299-0.221-0.397-0.399z"></path>
</symbol>
<symbol id="icon-material-symbols-light_favorite-outline-rounded" viewBox="0 0 31 32">
<path d="M15.329 28.8c-0.304 0-0.604-0.059-0.903-0.176-0.298-0.116-0.56-0.294-0.787-0.535l-1.796-1.716c-2.785-2.68-5.241-5.286-7.369-7.819-2.13-2.532-3.195-5.163-3.195-7.895 0-2.108 0.676-3.879 2.028-5.311s3.022-2.148 5.012-2.148c1.141 0 2.329 0.306 3.565 0.917s2.394 1.764 3.475 3.458c1.082-1.694 2.24-2.847 3.475-3.458s2.423-0.917 3.565-0.917c1.99 0 3.661 0.716 5.012 2.148s2.028 3.202 2.028 5.311c0 2.795-1.108 5.481-3.324 8.059s-4.642 5.132-7.278 7.661l-1.787 1.709c-0.227 0.241-0.495 0.419-0.803 0.535s-0.614 0.175-0.918 0.176zM14.595 9.295c-0.937-1.6-1.91-2.74-2.921-3.42-1.011-0.678-2.129-1.018-3.354-1.018-1.564 0-2.868 0.553-3.911 1.658s-1.564 2.486-1.564 4.144c0 1.224 0.327 2.48 0.981 3.766 0.654 1.287 1.532 2.606 2.635 3.955 1.101 1.348 2.368 2.728 3.8 4.141 1.43 1.411 2.919 2.864 4.468 4.358 0.18 0.17 0.391 0.255 0.632 0.255s0.452-0.085 0.632-0.255c1.549-1.494 3.039-2.947 4.47-4.36 1.431-1.41 2.698-2.79 3.8-4.139 1.101-1.35 1.979-2.669 2.633-3.955s0.981-2.542 0.981-3.766c0-1.658-0.521-3.039-1.564-4.144s-2.347-1.658-3.911-1.658c-1.225 0-2.344 0.34-3.354 1.019-1.012 0.678-1.985 1.818-2.921 3.418-0.083 0.149-0.195 0.261-0.335 0.335s-0.283 0.111-0.43 0.111c-0.147 0-0.29-0.037-0.43-0.111s-0.251-0.186-0.333-0.335z"></path>
</symbol>
</defs>
</svg>
